<mxfile host="app.diagrams.net" modified="2024-01-04T13:00:23.872Z" agent="Mozilla/5.0 (Windows NT 10.0; Win64; x64) AppleWebKit/537.36 (KHTML, like Gecko) Chrome/120.0.0.0 Safari/537.36" version="22.1.16" etag="VBhf4GvaqxSiEL4YoyZ4" type="device">
  <diagram id="5oGkNTix7LAoe45Dg-lP" name="Sayfa -1">
    <mxGraphModel dx="922" dy="651" grid="1" gridSize="10" guides="1" tooltips="1" connect="1" arrows="1" fold="1" page="0" pageScale="1" pageWidth="827" pageHeight="1169" background="none" math="0" shadow="0">
      <root>
        <mxCell id="0" />
        <mxCell id="1" parent="0" />
        <mxCell id="node0" value="&lt;p style=&quot;margin:0px;margin-top:4px;text-align:center;&quot;&gt;&lt;b&gt;JSONReader&lt;/b&gt;&lt;/p&gt;&lt;hr size=&quot;1&quot;&gt;&lt;p style=&quot;margin:0 0 0 4px;line-height:1.6;&quot;&gt; __assistantIDAssistantMap: Map&lt;br&gt; __advisorIDCoursesMap: Map&lt;br&gt; __system: &lt;br&gt; __coursePrerequisiteCourseCodesMap: Map&lt;br&gt; __studentIDAdvisorIDMap: Map&lt;br&gt; __studentRegistrationMap: Map&lt;br&gt; __department: Department&lt;br&gt; __university: University&lt;br&gt; __lecturerIDCoursesMap: Map&lt;br&gt; __sectionCodeSectionMap: Map&lt;/p&gt;&lt;hr size=&quot;1&quot;&gt;&lt;p style=&quot;margin:0 0 0 4px;line-height:1.6;&quot;&gt; __init__(self): &lt;br&gt; readDepartments(self, university): &lt;br&gt; start(self, department): &lt;br&gt; readJson(self): &lt;br&gt; readCourses(self): &lt;br&gt; readAssistants(self): &lt;br&gt; readLabSections(self): &lt;br&gt; readLecturers(self): &lt;br&gt; readStudents(self): &lt;br&gt; readTranscript(self, student): &lt;br&gt; readRequests(self): &lt;br&gt; readAdvisors(self): &lt;br&gt; syncObjects(self): &lt;/p&gt;" style="verticalAlign=top;align=left;overflow=fill;fontSize=14;fontFamily=Helvetica;html=1;rounded=0;shadow=0;comic=0;labelBackgroundColor=none;strokeWidth=1;" parent="1" vertex="1">
          <mxGeometry x="-157" y="226" width="316" height="592" as="geometry" />
        </mxCell>
      </root>
    </mxGraphModel>
  </diagram>
</mxfile>
